<svg width="32" height="32" viewBox="0 0 32 32" fill="none" xmlns="http://www.w3.org/2000/svg">
  <!-- CarbonScope logomark for light backgrounds (dark) -->
  <g transform="translate(6, 6) scale(0.83)">
    <path d="M20.1251 19.7812H23.3894C23.3894 15.5851 21.1784 11.9119 17.8719 9.89126C21.1784 7.8706 23.3893 4.19741 23.3893 0.00128174H20.125C20.125 3.97195 17.3159 7.29372 13.6233 8.07253V0.00128174H10.3594V8.07253C6.64936 7.30729 3.8576 3.98444 3.8576 0.00128174H0.593319C0.593319 4.19741 2.80427 7.8706 6.11078 9.89126C2.80424 11.9119 0.593246 15.5851 0.593246 19.7812H3.85753C3.85753 15.7981 6.64935 12.4752 10.3594 11.71V19.7849H13.6233V11.71C17.3333 12.4752 20.1251 15.7981 20.1251 19.7812Z" fill="#0F172A"/>
  </g>
</svg>
